<?xml version="1.0" encoding="UTF-8"?>
<svg width="25px" height="25px" viewBox="0 0 25 25" version="1.1" xmlns="http://www.w3.org/2000/svg" xmlns:xlink="http://www.w3.org/1999/xlink">
    <title>apps/128/preferences-system</title>
    <defs>
        <filter x="-9.2%" y="-4.6%" width="118.4%" height="118.4%" filterUnits="objectBoundingBox" id="filter-1">
            <feOffset dx="0" dy="1" in="SourceAlpha" result="shadowOffsetOuter1"></feOffset>
            <feGaussianBlur stdDeviation="0.5" in="shadowOffsetOuter1" result="shadowBlurOuter1"></feGaussianBlur>
            <feColorMatrix values="0 0 0 0 0   0 0 0 0 0   0 0 0 0 0  0 0 0 0.20036604 0" type="matrix" in="shadowBlurOuter1" result="shadowMatrixOuter1"></feColorMatrix>
            <feMerge>
                <feMergeNode in="shadowMatrixOuter1"></feMergeNode>
                <feMergeNode in="SourceGraphic"></feMergeNode>
            </feMerge>
        </filter>
        <linearGradient x1="52.5638738%" y1="100%" x2="48.0605379%" y2="2.5213666%" id="linearGradient-2">
            <stop stop-color="#3F3F3F" offset="0%"></stop>
            <stop stop-color="#616161" offset="100%"></stop>
        </linearGradient>
        <circle id="path-3" cx="10.875" cy="10.875" r="10.875"></circle>
        <filter x="-6.9%" y="-6.9%" width="113.8%" height="113.8%" filterUnits="objectBoundingBox" id="filter-4">
            <feGaussianBlur stdDeviation="1" in="SourceAlpha" result="shadowBlurInner1"></feGaussianBlur>
            <feOffset dx="0" dy="-1" in="shadowBlurInner1" result="shadowOffsetInner1"></feOffset>
            <feComposite in="shadowOffsetInner1" in2="SourceAlpha" operator="arithmetic" k2="-1" k3="1" result="shadowInnerInner1"></feComposite>
            <feColorMatrix values="0 0 0 0 0   0 0 0 0 0   0 0 0 0 0  0 0 0 0.3 0" type="matrix" in="shadowInnerInner1"></feColorMatrix>
        </filter>
        <linearGradient x1="50%" y1="0%" x2="50%" y2="100%" id="linearGradient-5">
            <stop stop-color="#7A7A7A" offset="0%"></stop>
            <stop stop-color="#000000" offset="100%"></stop>
        </linearGradient>
        <radialGradient cx="50%" cy="50%" fx="50%" fy="50%" r="50%" gradientTransform="translate(0.5, 0.5), scale(0.9988, 1), rotate(90), scale(1, 0.9512), translate(-0.5, -0.5)" id="radialGradient-6">
            <stop stop-color="#FFFFFF" offset="0%"></stop>
            <stop stop-color="#C9C9C9" offset="46.0623889%"></stop>
            <stop stop-color="#FFFFFF" offset="100%"></stop>
        </radialGradient>
    </defs>
    <g id="apps/128/preferences-system" stroke="none" fill="none" transform="translate(0.75, 0)">
        <g id="编组" filter="url(#filter-1)" stroke-width="1" fill-rule="evenodd" transform="translate(1.125, 1.125)">
            <g id="Oval">
                <use fill="url(#linearGradient-2)" fill-rule="evenodd" xlink:href="#path-3"></use>
                <use fill="black" fill-opacity="1" filter="url(#filter-4)" xlink:href="#path-3"></use>
            </g>
            <path d="M10.875,0 C16.8810967,0 21.75,4.86890335 21.75,10.875 C21.75,16.8810967 16.8810967,21.75 10.875,21.75 C4.86890335,21.75 0,16.8810967 0,10.875 C0,4.86890335 4.86890335,0 10.875,0 Z M10.875,0.1875 C4.97245674,0.1875 0.1875,4.97245674 0.1875,10.875 C0.1875,16.7775433 4.97245674,21.5625 10.875,21.5625 C16.7775433,21.5625 21.5625,16.7775433 21.5625,10.875 C21.5625,4.97245674 16.7775433,0.1875 10.875,0.1875 Z" id="Oval" fill="url(#linearGradient-5)" fill-rule="nonzero"></path>
            <path d="M12.5102545,2.49412543 L12.8983184,2.58227066 C13.1459731,2.63852318 13.3121184,2.87149514 13.2846319,3.12396627 L13.1816922,4.06949372 C13.1587313,4.2803949 13.2713615,4.48282626 13.4626755,4.57450769 L13.9675389,4.81644826 C14.1602777,4.90881249 14.3904128,4.86845665 14.5402246,4.71602371 L15.1944445,4.05035742 C15.3737083,3.86795716 15.6617161,3.85023321 15.8619923,4.00927664 L16.1760672,4.25868992 C16.3740638,4.41592304 16.4235262,4.69621862 16.2913048,4.91172364 L15.7992147,5.71377199 C15.6882322,5.89466019 15.7035302,6.12590207 15.8373748,6.29059355 L16.2190853,6.76027632 C16.3525896,6.92454917 16.5750725,6.98695103 16.7745332,6.91606801 L17.6536957,6.60363708 C17.8924031,6.51880684 18.1568339,6.62591024 18.2692246,6.85294703 L18.4467817,7.21162414 C18.559688,7.43970248 18.4832633,7.71619919 18.26925,7.85391577 L17.4978202,8.35032719 C17.3180367,8.46601702 17.2316994,8.68321206 17.2829933,8.89075764 L17.4423564,9.5355726 C17.4923808,9.73798124 17.6627548,9.88810076 17.8698507,9.91224543 L18.8371089,10.025015 C19.0702213,10.0521929 19.2492883,10.2443036 19.2600356,10.4787487 L19.2778502,10.8673634 L19.2782035,10.9033447 L19.2725718,11.118476 C19.2690697,11.2522552 19.1677543,11.3631132 19.0348296,11.3786105 L17.9281262,11.5076376 C17.7126226,11.5327625 17.5379147,11.6940028 17.4956199,11.9068037 L17.3561172,12.608693 C17.3160866,12.810102 17.4032715,13.0155083 17.5759562,13.1266301 L18.388897,13.6497537 C18.5971109,13.7837383 18.6759064,14.0499322 18.5741715,14.2756642 L18.4237157,14.6094995 C18.3167748,14.8467829 18.045687,14.9623434 17.8004439,14.8751905 L16.9624884,14.5774034 C16.7565883,14.504232 16.5270231,14.573243 16.3955998,14.747819 L15.9455418,15.3456538 C15.8219921,15.5097711 15.8113943,15.7327565 15.9188223,15.9078514 L16.4306348,16.7420448 C16.5603409,16.9534502 16.5154667,17.2279863 16.3251991,17.3870905 L16.0642845,17.6052707 C15.8643757,17.772437 15.5695962,17.7580351 15.3869348,17.5721779 L14.7517452,16.9258749 C14.5992086,16.7706695 14.3638032,16.7319464 14.1695881,16.8301128 L13.4878123,17.1747179 C13.3019295,17.2686727 13.1937583,17.4680144 13.2163004,17.6750694 L13.3212933,18.639456 C13.3485891,18.8901745 13.1848916,19.1219734 12.9394831,19.1801068 L12.6259941,19.2543675 C12.3759486,19.3135993 12.1217169,19.1736534 12.0380123,18.9307033 L11.7358465,18.0536764 C11.6644149,17.8463484 11.4640094,17.7116548 11.2450584,17.7238152 L10.902727,17.7428281 L10.847273,17.7428281 L10.5049416,17.7238152 C10.2859906,17.7116548 10.0855851,17.8463484 10.0141535,18.0536764 L9.71198775,18.9307033 C9.62828314,19.1736534 9.37405145,19.3135993 9.12400587,19.2543675 L8.81051691,19.1801068 C8.56510844,19.1219734 8.40141091,18.8901745 8.42870666,18.639456 L8.53369956,17.6750694 C8.55624166,17.4680144 8.44807047,17.2686727 8.2621877,17.1747179 L7.58041191,16.8301128 C7.38619685,16.7319464 7.1507914,16.7706695 6.99825479,16.9258749 L6.36306517,17.5721779 C6.18040379,17.7580351 5.88562429,17.772437 5.68571551,17.6052707 L5.42480093,17.3870905 C5.23453334,17.2279863 5.18965912,16.9534502 5.31936517,16.7420448 L5.83117765,15.9078514 C5.93860567,15.7327565 5.9280079,15.5097711 5.80445822,15.3456538 L5.35440017,14.747819 C5.22297694,14.573243 4.99341167,14.504232 4.78751164,14.5774034 L3.94955608,14.8751905 C3.70431298,14.9623434 3.43322524,14.8467829 3.32628426,14.6094995 L3.17582846,14.2756642 C3.0740936,14.0499322 3.15288914,13.7837383 3.36110302,13.6497537 L4.17404379,13.1266301 C4.34672849,13.0155083 4.43391341,12.810102 4.39388275,12.608693 L4.25438013,11.9068037 C4.2120853,11.6940028 4.03737742,11.5327625 3.82187379,11.5076376 L2.71517037,11.3786105 C2.58224566,11.3631132 2.48093033,11.2522552 2.47742823,11.118476 L2.47179648,10.9033447 L2.47214978,10.8673634 L2.4899644,10.4787487 C2.50071168,10.2443036 2.67977871,10.0521929 2.91289109,10.025015 L3.8801493,9.91224543 C4.08724525,9.88810076 4.25761918,9.73798124 4.30764356,9.5355726 L4.46700667,8.89075764 C4.51830062,8.68321206 4.43196326,8.46601702 4.25217978,8.35032719 L3.48075001,7.85391577 C3.26673666,7.71619919 3.19031199,7.43970248 3.30321831,7.21162414 L3.48077535,6.85294703 C3.59316607,6.62591024 3.85759694,6.51880684 4.09630431,6.60363708 L4.97546678,6.91606801 C5.17492748,6.98695103 5.39741035,6.92454917 5.53091468,6.76027632 L5.91262525,6.29059355 C6.0464698,6.12590207 6.06176778,5.89466019 5.95078532,5.71377199 L5.45869517,4.91172364 C5.32647384,4.69621862 5.3759362,4.41592304 5.57393278,4.25868992 L5.88800769,4.00927664 C6.0882839,3.85023321 6.37629166,3.86795716 6.55555549,4.05035742 L7.20977543,4.71602371 C7.35958723,4.86845665 7.58972234,4.90881249 7.78246109,4.81644826 L8.28732452,4.57450769 C8.47863845,4.48282626 8.59126868,4.2803949 8.56830784,4.06949372 L8.46536814,3.12396627 C8.43788158,2.87149514 8.60402691,2.63852318 8.85168158,2.58227066 L9.23974553,2.49412543 C9.48860368,2.43759955 9.74009563,2.57755613 9.82322423,2.81883436 L10.123949,3.69160357 C10.1962429,3.90133717 10.3980894,4.0383571 10.6196973,4.02813353 C10.721033,4.0234441 10.806134,4.0211009 10.875,4.0211009 C10.9209107,4.0211009 10.9740369,4.02214232 11.0343786,4.02422516 L11.1303027,4.02813353 C11.3519106,4.0383571 11.5537571,3.90133717 11.626051,3.69160357 L11.9267758,2.81883436 C12.0099044,2.57755613 12.2613963,2.43759955 12.5102545,2.49412543 Z M16.1940383,9.81408431 C14.6047289,9.64862343 12.9933509,10.4207153 12.1428112,11.917254 C11.3391386,13.3313294 11.4265246,15.0196203 12.2294377,16.3122164 C14.5771732,15.7007701 16.3125,13.5368646 16.3125,10.9612247 C16.3125,10.5681872 16.2720909,10.1847374 16.1940383,9.81408431 Z M9.60718877,11.917254 C8.77701916,10.4565568 7.22201835,9.68602151 5.67017882,9.80380652 L5.55473706,9.81492879 C5.47790909,10.1847374 5.4375,10.5681872 5.4375,10.9612247 C5.4375,13.5368646 7.17282681,15.7007701 9.52200748,16.3111666 C10.3234754,15.0196203 10.4108614,13.3313294 9.60718877,11.917254 Z M10.8752625,10.0343079 C10.4111404,10.0343079 10.0348951,10.4107448 10.0348951,10.8751033 C10.0348951,11.3394617 10.4111404,11.7158986 10.8752625,11.7158986 C11.3393847,11.7158986 11.71563,11.3394617 11.71563,10.8751033 C11.71563,10.4107448 11.3393847,10.0343079 10.8752625,10.0343079 Z M10.875,5.4375 C9.3649473,5.4375 7.99866314,6.06280728 7.01351508,7.07330523 C7.64422449,8.60797102 9.13562418,9.68651903 10.875,9.68651903 C12.6143758,9.68651903 14.1057755,8.60797102 14.7366238,7.07243129 C13.7513369,6.06280728 12.3850527,5.4375 10.875,5.4375 Z" id="Combined-Shape" fill="url(#radialGradient-6)"></path>
            <path d="M12.5102545,2.49412543 L12.8983184,2.58227066 C13.1459731,2.63852318 13.3121184,2.87149514 13.2846319,3.12396627 L13.1816922,4.06949372 C13.1587313,4.2803949 13.2713615,4.48282626 13.4626755,4.57450769 L13.9675389,4.81644826 C14.1602777,4.90881249 14.3904128,4.86845665 14.5402246,4.71602371 L15.1944445,4.05035742 C15.3737083,3.86795716 15.6617161,3.85023321 15.8619923,4.00927664 L16.1760672,4.25868992 C16.3740638,4.41592304 16.4235262,4.69621862 16.2913048,4.91172364 L15.7992147,5.71377199 C15.6882322,5.89466019 15.7035302,6.12590207 15.8373748,6.29059355 L16.2190853,6.76027632 C16.3525896,6.92454917 16.5750725,6.98695103 16.7745332,6.91606801 L17.6536957,6.60363708 C17.8924031,6.51880684 18.1568339,6.62591024 18.2692246,6.85294703 L18.4467817,7.21162414 C18.559688,7.43970248 18.4832633,7.71619919 18.26925,7.85391577 L17.4978202,8.35032719 C17.3180367,8.46601702 17.2316994,8.68321206 17.2829933,8.89075764 L17.4423564,9.5355726 C17.4923808,9.73798124 17.6627548,9.88810076 17.8698507,9.91224543 L18.8371089,10.025015 C19.0702213,10.0521929 19.2492883,10.2443036 19.2600356,10.4787487 L19.2778502,10.8673634 C19.2783748,10.879349 19.2783748,10.8913506 19.2782035,10.9033447 L19.2725718,11.118476 C19.2690697,11.2522552 19.1677543,11.3631132 19.0348296,11.3786105 L17.9281262,11.5076376 C17.7126226,11.5327625 17.5379147,11.6940028 17.4956199,11.9068037 L17.3561172,12.608693 C17.3160866,12.810102 17.4032715,13.0155083 17.5759562,13.1266301 L18.388897,13.6497537 C18.5971109,13.7837383 18.6759064,14.0499322 18.5741715,14.2756642 L18.4237157,14.6094995 C18.3167748,14.8467829 18.045687,14.9623434 17.8004439,14.8751905 L16.9624884,14.5774034 C16.7565883,14.504232 16.5270231,14.573243 16.3955998,14.747819 L15.9455418,15.3456538 C15.8219921,15.5097711 15.8113943,15.7327565 15.9188223,15.9078514 L16.4306348,16.7420448 C16.5603409,16.9534502 16.5154667,17.2279863 16.3251991,17.3870905 L16.0642845,17.6052707 C15.8643757,17.772437 15.5695962,17.7580351 15.3869348,17.5721779 L14.7517452,16.9258749 C14.5992086,16.7706695 14.3638032,16.7319464 14.1695881,16.8301128 L13.4878123,17.1747179 C13.3019295,17.2686727 13.1937583,17.4680144 13.2163004,17.6750694 L13.3212933,18.639456 C13.3485891,18.8901745 13.1848916,19.1219734 12.9394831,19.1801068 L12.6259941,19.2543675 C12.3759486,19.3135993 12.1217169,19.1736534 12.0380123,18.9307033 L11.7358465,18.0536764 C11.6644149,17.8463484 11.4640094,17.7116548 11.2450584,17.7238152 L10.902727,17.7428281 C10.8842566,17.743854 10.8657434,17.743854 10.847273,17.7428281 L10.5049416,17.7238152 C10.2859906,17.7116548 10.0855851,17.8463484 10.0141535,18.0536764 L9.71198775,18.9307033 C9.62828314,19.1736534 9.37405145,19.3135993 9.12400587,19.2543675 L8.81051691,19.1801068 C8.56510844,19.1219734 8.40141091,18.8901745 8.42870666,18.639456 L8.53369956,17.6750694 C8.55624166,17.4680144 8.44807047,17.2686727 8.2621877,17.1747179 L7.58041191,16.8301128 C7.38619685,16.7319464 7.1507914,16.7706695 6.99825479,16.9258749 L6.36306517,17.5721779 C6.18040379,17.7580351 5.88562429,17.772437 5.68571551,17.6052707 L5.42480093,17.3870905 C5.23453334,17.2279863 5.18965912,16.9534502 5.31936517,16.7420448 L5.83117765,15.9078514 C5.93860567,15.7327565 5.9280079,15.5097711 5.80445822,15.3456538 L5.35440017,14.747819 C5.22297694,14.573243 4.99341167,14.504232 4.78751164,14.5774034 L3.94955608,14.8751905 C3.70431298,14.9623434 3.43322524,14.8467829 3.32628426,14.6094995 L3.17582846,14.2756642 C3.0740936,14.0499322 3.15288914,13.7837383 3.36110302,13.6497537 L4.17404379,13.1266301 C4.34672849,13.0155083 4.43391341,12.810102 4.39388275,12.608693 L4.25438013,11.9068037 C4.2120853,11.6940028 4.03737742,11.5327625 3.82187379,11.5076376 L2.71517037,11.3786105 C2.58224566,11.3631132 2.48093033,11.2522552 2.47742823,11.118476 L2.47179648,10.9033447 C2.47162525,10.8913506 2.47162525,10.879349 2.47214978,10.8673634 L2.4899644,10.4787487 C2.50071168,10.2443036 2.67977871,10.0521929 2.91289109,10.025015 L3.8801493,9.91224543 C4.08724525,9.88810076 4.25761918,9.73798124 4.30764356,9.5355726 L4.46700667,8.89075764 C4.51830062,8.68321206 4.43196326,8.46601702 4.25217978,8.35032719 L3.48075001,7.85391577 C3.26673666,7.71619919 3.19031199,7.43970248 3.30321831,7.21162414 L3.48077535,6.85294703 C3.59316607,6.62591024 3.85759694,6.51880684 4.09630431,6.60363708 L4.97546678,6.91606801 C5.17492748,6.98695103 5.39741035,6.92454917 5.53091468,6.76027632 L5.91262525,6.29059355 C6.0464698,6.12590207 6.06176778,5.89466019 5.95078532,5.71377199 L5.45869517,4.91172364 C5.32647384,4.69621862 5.3759362,4.41592304 5.57393278,4.25868992 L5.88800769,4.00927664 C6.0882839,3.85023321 6.37629166,3.86795716 6.55555549,4.05035742 L7.20977543,4.71602371 C7.35958723,4.86845665 7.58972234,4.90881249 7.78246109,4.81644826 L8.28732452,4.57450769 C8.47863845,4.48282626 8.59126868,4.2803949 8.56830784,4.06949372 L8.46536814,3.12396627 C8.43788158,2.87149514 8.60402691,2.63852318 8.85168158,2.58227066 L9.23974553,2.49412543 C9.48860368,2.43759955 9.74009563,2.57755613 9.82322423,2.81883436 L10.1233877,3.69089209 C10.1954109,3.90090751 10.3972974,4.03827469 10.6190898,4.02817649 C10.7206926,4.02345348 10.8059963,4.0211009 10.875,4.0211009 C10.930203,4.0211009 10.9958379,4.02260655 11.0719049,4.02561785 L11.1309102,4.02817649 C11.3527026,4.03827469 11.5545891,3.90090751 11.6266123,3.69089209 L11.9267758,2.81883436 C12.0099044,2.57755613 12.2613963,2.43759955 12.5102545,2.49412543 Z M9.32280764,2.85981066 L8.93474368,2.94795589 C8.87283002,2.96201902 8.83129368,3.02026201 8.83816532,3.08337979 L8.94110502,4.02890724 C8.98128649,4.3979843 8.7841836,4.75223919 8.44938421,4.9126817 L7.94452078,5.15462227 C7.60722797,5.31625967 7.20449153,5.24563694 6.94232088,4.9788793 L6.28810093,4.31321301 C6.24328498,4.26761295 6.17128304,4.26318196 6.12121398,4.30294282 L5.80713907,4.5523561 C5.75763993,4.59166438 5.74527434,4.66173827 5.77832967,4.71561453 L6.27041982,5.51766287 C6.46463913,5.83421722 6.43786766,6.23889052 6.2036397,6.52710061 L5.82192913,6.99678338 C5.58829656,7.28426086 5.19895153,7.39346412 4.84989531,7.26941883 L3.97073283,6.9569879 C3.91105599,6.93578034 3.84494827,6.96255619 3.81685059,7.01931539 L3.63929355,7.3779925 C3.61106697,7.43501209 3.63017314,7.50413627 3.68367648,7.53856541 L4.45510625,8.03497683 C4.76972734,8.23743403 4.92081772,8.61752536 4.8310533,8.98073012 L4.6716902,9.62554508 C4.58414753,9.9797602 4.28599314,10.2424694 3.92357524,10.2847225 L2.95631703,10.3974921 C2.90574766,10.4033879 2.86690243,10.4450627 2.864571,10.4959211 L2.84666806,10.8845359 L2.84666806,10.8935312 L2.84981275,11.0168174 L3.86529973,11.1351605 C4.2289621,11.1775587 4.52624032,11.4414484 4.61337615,11.794153 L4.62218582,11.8337012 L4.76168844,12.5355905 C4.83174209,12.8880563 4.67916848,13.2475173 4.37697026,13.4419805 L3.56402949,13.965104 C3.51197602,13.9986002 3.49227713,14.0651487 3.51771085,14.1215816 L3.66816665,14.4554169 C3.69490189,14.5147378 3.76267383,14.5436279 3.8239846,14.5218397 L4.66194016,14.2240526 C5.02226522,14.0960026 5.42400445,14.2167718 5.6539951,14.52228 L6.10405314,15.1201147 C6.32026508,15.4073199 6.33881119,15.7975445 6.15081216,16.1039605 L5.63899967,16.9381539 C5.60657316,16.9910053 5.61779171,17.0596393 5.66535861,17.0994154 L5.9262732,17.3175955 C5.97625039,17.3593871 6.04994527,17.3557866 6.09561061,17.3093223 L6.73080023,16.6630193 C6.9977393,16.3914098 7.40969883,16.3236444 7.7495752,16.4954357 L8.43135099,16.8400408 C8.75664583,17.0044618 8.94594542,17.3533096 8.90649674,17.7156559 L8.80150384,18.6800425 C8.7946799,18.7427221 8.83560429,18.8006718 8.8969564,18.8152052 L9.21044536,18.8894658 C9.27295676,18.9042738 9.33651468,18.8692873 9.35744083,18.8085498 L9.65960657,17.9315229 C9.7856672,17.5656357 10.1393378,17.3279318 10.5257368,17.3493922 L10.8680682,17.3684051 C10.8726859,17.3686616 10.8773141,17.3686616 10.8819318,17.3684051 L11.2242632,17.3493922 C11.6106622,17.3279318 11.9643328,17.5656357 12.0903934,17.9315229 L12.3925592,18.8085498 C12.4134853,18.8692873 12.4770432,18.9042738 12.5395546,18.8894658 L12.8530436,18.8152052 C12.9143957,18.8006718 12.9553201,18.7427221 12.9484962,18.6800425 L12.8435033,17.7156559 C12.8040546,17.3533096 12.9933542,17.0044618 13.318649,16.8400408 L14.0004248,16.4954357 C14.3403012,16.3236444 14.7522607,16.3914098 15.0191998,16.6630193 L15.6543894,17.3093223 C15.7000547,17.3557866 15.7737496,17.3593871 15.8237268,17.3175955 L16.0846414,17.0994154 C16.1322083,17.0596393 16.1434268,16.9910053 16.1110003,16.9381539 L15.5991878,16.1039605 C15.4111888,15.7975445 15.4297349,15.4073199 15.6459469,15.1201147 L16.0960049,14.52228 C16.3259955,14.2167718 16.7277348,14.0960026 17.0880598,14.2240526 L17.9260154,14.5218397 C17.9873262,14.5436279 18.0550981,14.5147378 18.0818334,14.4554169 L18.2322892,14.1215816 C18.2577229,14.0651487 18.238024,13.9986002 18.1859705,13.965104 L17.3730297,13.4419805 C17.0708315,13.2475173 16.9182579,12.8880563 16.9883116,12.5355905 L17.1278142,11.8337012 C17.2018301,11.4612996 17.5075689,11.179129 17.8847003,11.1351605 L18.9000002,11.0168174 L18.9033319,10.8935312 L18.9033319,10.8845359 L18.885429,10.4959211 C18.8830976,10.4450627 18.8442523,10.4033879 18.793683,10.3974921 L17.8264248,10.2847225 C17.4640069,10.2424694 17.1658525,9.9797602 17.0783098,9.62554508 L16.9189467,8.98073012 C16.8291823,8.61752536 16.9802727,8.23743403 17.2948938,8.03497683 L18.0663235,7.53856541 C18.1198269,7.50413627 18.138933,7.43501209 18.1107064,7.3779925 L17.9331494,7.01931539 C17.9050517,6.96255619 17.838944,6.93578034 17.7792672,6.9569879 L16.9001047,7.26941883 C16.5510485,7.39346412 16.1617034,7.28426086 15.9280709,6.99678338 L15.5463603,6.52710061 C15.3121323,6.23889052 15.2853609,5.83421722 15.4795802,5.51766287 L15.9716703,4.71561453 C16.0047257,4.66173827 15.9923601,4.59166438 15.9428609,4.5523561 L15.628786,4.30294282 C15.578717,4.26318196 15.506715,4.26761295 15.4618991,4.31321301 L14.8076791,4.9788793 C14.5455085,5.24563694 14.142772,5.31625967 13.8054792,5.15462227 L13.3006158,4.9126817 C12.9658164,4.75223919 12.7687135,4.3979843 12.808895,4.02890724 L12.9118347,3.08337979 C12.9187063,3.02026201 12.87717,2.96201902 12.8152563,2.94795589 L12.4271924,2.85981066 C12.3649778,2.84567919 12.3021048,2.88066833 12.281359,2.94088241 L11.9813328,3.8125407 C11.8552923,4.18006768 11.5019907,4.42046026 11.1146644,4.40282443 L11.0570712,4.40032435 C10.9856272,4.39749606 10.9248087,4.3961009 10.875,4.3961009 C10.8123596,4.3961009 10.7326077,4.39830454 10.6361458,4.40278841 C10.2480093,4.42046026 9.89470775,4.18006768 9.76880447,3.81294014 L9.46867731,2.94098789 C9.44789516,2.88066833 9.38502217,2.84567919 9.32280764,2.85981066 Z M16.233917,9.44120939 L16.5063099,9.46963271 L16.5621273,9.73775621 C16.6452567,10.1370753 16.6875,10.5464354 16.6875,10.9612247 C16.6875,13.669246 14.8739605,16.0113039 12.3233016,16.6752797 L12.0559927,16.7448644 L11.9102666,16.5102157 C11.0155337,15.0695134 10.9631333,13.2339797 11.8167869,11.731962 C12.7230578,10.1373632 14.4592694,9.2560306 16.233917,9.44120939 Z M9.93321312,11.731962 C10.786842,13.2339363 10.7344887,15.0694607 9.83990169,16.5100889 L9.69418897,16.7447422 L9.42687878,16.6751746 C6.87609525,16.0113315 5.0625,13.6693 5.0625,10.9612247 C5.0625,10.5466077 5.10470806,10.1372867 5.18772743,9.73792587 L5.24386513,9.46787808 L5.5183764,9.44103015 L5.58154728,9.43486462 C7.33518956,9.27790688 9.03874989,10.1581391 9.93321312,11.731962 Z M5.61497759,9.80837153 L5.55487824,9.81424941 C5.47795859,10.1842678 5.4375,10.5679465 5.4375,10.9612247 C5.4375,13.5370862 7.1731254,15.7011424 9.52132667,16.3122633 C10.3234258,15.0205761 10.4110889,13.3317297 9.60718877,11.917254 C8.76717525,10.4392362 7.18503895,9.66784499 5.61497759,9.80837153 Z M12.1428112,11.917254 C11.3389111,13.3317297 11.4265742,15.0205761 12.2288317,16.3123742 C14.5768746,15.7011424 16.3125,13.5370862 16.3125,10.9612247 C16.3125,10.5679465 16.2720414,10.1842678 16.1949982,9.81418436 C14.6053778,9.64831256 12.9935221,10.420414 12.1428112,11.917254 Z M10.875,5.0625 C12.4474072,5.0625 13.9208905,5.69957092 15.0051116,6.81063118 L15.1772463,6.98702688 L15.0836043,7.21501145 C14.4904551,8.65911682 13.2207997,9.69529709 11.7206051,9.98170391 L11.7030002,9.98481736 L11.7055147,9.987204 C11.9326455,10.1998283 12.0781332,10.4986486 12.0898629,10.8314993 L12.09063,10.8751033 C12.09063,11.5465258 11.5465342,12.0908986 10.8752625,12.0908986 C10.2039909,12.0908986 9.65989506,11.5465258 9.65989506,10.8751033 C9.65989506,10.5247959 9.80800431,10.2090729 10.0450104,9.987204 L10.0473752,9.98481736 L10.029409,9.98170678 C8.55423639,9.70008394 7.30194969,8.69350237 6.69660343,7.28702539 L6.66638273,7.21516655 L6.57273275,6.98719022 L6.74485366,6.81078749 C7.8290619,5.69960763 9.30254395,5.0625 10.875,5.0625 Z M10.8752625,10.0343079 C10.4111404,10.0343079 10.0348951,10.4107448 10.0348951,10.8751033 C10.0348951,11.3394617 10.4111404,11.7158986 10.8752625,11.7158986 C11.3393847,11.7158986 11.71563,11.3394617 11.71563,10.8751033 C11.71563,10.4107448 11.3393847,10.0343079 10.8752625,10.0343079 Z M10.875,5.4375 C9.3648957,5.4375 7.99856976,6.06285001 7.01325615,7.07267506 C7.64381624,8.60767576 9.13538612,9.68651903 10.875,9.68651903 C12.6146139,9.68651903 14.1061838,8.60767576 14.7367248,7.07253479 C13.7514302,6.06285001 12.3851043,5.4375 10.875,5.4375 Z" id="Combined-Shape" fill-opacity="0.2" fill="#FFFFFF" fill-rule="nonzero"></path>
            <path d="M12.5517855,2.31128281 L12.9398495,2.39942804 C13.2803746,2.47677526 13.5088245,2.79711171 13.4710304,3.14425951 L13.3680908,4.08978696 C13.3537402,4.22160019 13.4241341,4.3481198 13.5437053,4.40542069 L14.0485688,4.64736126 C14.1690305,4.70508891 14.3128649,4.6798665 14.4064973,4.58459591 L15.0607172,3.91892963 C15.307205,3.66812927 15.7032157,3.64375884 15.9785955,3.86244355 L16.2926704,4.11185683 C16.5649157,4.32805237 16.6329264,4.71345879 16.4511221,5.0097782 L15.9590319,5.81182654 C15.8896679,5.92488167 15.8992291,6.06940785 15.982882,6.17234002 L16.3645925,6.64202279 C16.4480327,6.74469332 16.5870845,6.78369449 16.7117475,6.7393926 L17.59091,6.42696167 C17.9191326,6.31032009 18.282725,6.45758726 18.4372623,6.76976284 L18.6148193,7.12843996 C18.7700655,7.44204768 18.6649816,7.82223065 18.3707132,8.01159095 L17.5992835,8.50800237 C17.4869188,8.58030851 17.4329579,8.71605542 17.4650167,8.8457714 L17.6243798,9.49058636 C17.655645,9.61709176 17.7621287,9.71091646 17.8915637,9.72600688 L18.8588219,9.83877648 C19.1832058,9.87659539 19.4323837,10.143924 19.4473389,10.4701624 L19.4651535,10.8587772 C19.4658748,10.8752574 19.466071,10.8917595 19.4656393,10.9082514 L19.4600076,11.1233828 C19.4540642,11.3504154 19.2821251,11.5385491 19.0565426,11.564849 L17.9498392,11.6938761 C17.8151494,11.7095792 17.705957,11.8103544 17.6795227,11.9433549 L17.5400201,12.6452442 C17.5150009,12.7711249 17.5694915,12.8995038 17.6774194,12.9689549 L18.4903602,13.4920785 C18.7766543,13.6763074 18.8849982,14.042324 18.7451127,14.3527055 L18.5946569,14.6865407 C18.4476131,15.0128055 18.0748675,15.1717011 17.7376582,15.0518659 L16.8997026,14.7540788 C16.7710151,14.7083467 16.6275368,14.7514785 16.5453973,14.8605886 L16.0953392,15.4584234 C16.0181207,15.5609966 16.0114971,15.7003626 16.0786396,15.8097969 L16.5904521,16.6439903 C16.7687979,16.9346727 16.7070958,17.3121598 16.4454779,17.5309281 L16.1845633,17.7491082 C15.9096888,17.9789619 15.5043669,17.9591594 15.2532076,17.7036057 L14.6180179,17.0573027 C14.5226826,16.9602993 14.3755541,16.9360974 14.2541697,16.9974514 L13.5723939,17.3420565 C13.4562172,17.4007782 13.3886102,17.5253668 13.402699,17.6547761 L13.5076919,18.6191627 C13.5452236,18.9639006 13.3201395,19.2826242 12.9827028,19.3625576 L12.6692139,19.4368183 C12.3254012,19.5182621 11.9758326,19.3258364 11.8607388,18.9917801 L11.5585731,18.1147532 C11.514456,17.9867048 11.390683,17.9035162 11.2554561,17.9110267 L10.9131246,17.9300396 C10.8877278,17.9314501 10.8622722,17.9314501 10.8368754,17.9300396 L10.4945439,17.9110267 C10.359317,17.9035162 10.235544,17.9867048 10.1914269,18.1147532 L9.88926121,18.9917801 C9.77416737,19.3258364 9.42459879,19.5182621 9.08078612,19.4368183 L8.76729716,19.3625576 C8.42986052,19.2826242 8.20477641,18.9639006 8.24230807,18.6191627 L8.34730097,17.6547761 C8.36138978,17.5253668 8.29378278,17.4007782 8.17760606,17.3420565 L7.49583027,16.9974514 C7.37444585,16.9360974 7.22731745,16.9602993 7.13198206,17.0573027 L6.49679244,17.7036057 C6.24563306,17.9591594 5.84031124,17.9789619 5.56543667,17.7491082 L5.30452208,17.5309281 C5.04290415,17.3121598 4.98120211,16.9346727 5.15954792,16.6439903 L5.6713604,15.8097969 C5.73850291,15.7003626 5.7318793,15.5609966 5.65466075,15.4584234 L5.20460271,14.8605886 C5.12246319,14.7514785 4.97898489,14.7083467 4.85029737,14.7540788 L4.01234181,15.0518659 C3.67513255,15.1717011 3.30238691,15.0128055 3.15534307,14.6865407 L3.00488727,14.3527055 C2.86500183,14.042324 2.9733457,13.6763074 3.25963979,13.4920785 L4.07258056,12.9689549 C4.18050849,12.8995038 4.23499907,12.7711249 4.20997991,12.6452442 L4.07047728,11.9433549 C4.04404302,11.8103544 3.93485059,11.7095792 3.80016082,11.6938761 L2.6934574,11.564849 C2.46787492,11.5385491 2.29593575,11.3504154 2.28999245,11.1233828 L2.2843607,10.9082514 C2.28392897,10.8917595 2.28412525,10.8752574 2.28484648,10.8587772 L2.3026611,10.4701624 C2.31761631,10.143924 2.56679423,9.87659539 2.89117812,9.83877648 L3.85843633,9.72600688 C3.9878713,9.71091646 4.09435501,9.61709176 4.12562025,9.49058636 L4.28498335,8.8457714 C4.31704207,8.71605542 4.26308122,8.58030851 4.15071654,8.50800237 L3.37928677,8.01159095 C3.08501843,7.82223065 2.9799345,7.44204768 3.13518069,7.12843996 L3.31273773,6.76976284 C3.46727497,6.45758726 3.83086742,6.31032009 4.15909004,6.42696167 L5.03825252,6.7393926 C5.16291545,6.78369449 5.30196725,6.74469332 5.38540745,6.64202279 L5.76711802,6.17234002 C5.85077086,6.06940785 5.8603321,5.92488167 5.79096806,5.81182654 L5.29887792,5.0097782 C5.11707358,4.71345879 5.18508434,4.32805237 5.45732963,4.11185683 L5.77140454,3.86244355 C6.04678434,3.64375884 6.442795,3.66812927 6.68928277,3.91892963 L7.34350271,4.58459591 C7.43713509,4.6798665 7.58096953,4.70508891 7.70143125,4.64736126 L8.20629467,4.40542069 C8.32586588,4.3481198 8.39625977,4.22160019 8.38190925,4.08978696 L8.27896955,3.14425951 C8.24117553,2.79711171 8.46962536,2.47677526 8.81015053,2.39942804 L9.19821448,2.31128281 C9.54039443,2.23355973 9.88619586,2.42600003 10.0005158,2.75781034 L10.300748,3.63006778 C10.3457624,3.76132742 10.4719415,3.84718191 10.6103832,3.84087875 C10.7145572,3.83603621 10.8026933,3.8336009 10.875,3.8336009 C10.9329001,3.8336009 11.0009433,3.83516179 11.0800278,3.83829388 L11.1394383,3.84087053 C11.2780585,3.84718191 11.4042376,3.76132742 11.4493207,3.62986807 L11.7495023,2.7577576 C11.8638041,2.42600003 12.2096056,2.23355973 12.5517855,2.31128281 Z M12.5102545,2.49412543 C12.2613963,2.43759955 12.0099044,2.57755613 11.9267758,2.81883436 L11.6266123,3.69089209 C11.5545891,3.90090751 11.3527026,4.03827469 11.1309102,4.02817649 L11.0719049,4.02561785 C10.9958379,4.02260655 10.930203,4.0211009 10.875,4.0211009 C10.8059963,4.0211009 10.7206926,4.02345348 10.6190898,4.02817649 C10.3972974,4.03827469 10.1954109,3.90090751 10.1233877,3.69089209 L9.82322423,2.81883436 C9.74009563,2.57755613 9.48860368,2.43759955 9.23974553,2.49412543 L8.85168158,2.58227066 C8.60402691,2.63852318 8.43788158,2.87149514 8.46536814,3.12396627 L8.56830784,4.06949372 C8.59126868,4.2803949 8.47863845,4.48282626 8.28732452,4.57450769 L7.78246109,4.81644826 C7.58972234,4.90881249 7.35958723,4.86845665 7.20977543,4.71602371 L6.55555549,4.05035742 C6.37629166,3.86795716 6.0882839,3.85023321 5.88800769,4.00927664 L5.57393278,4.25868992 C5.3759362,4.41592304 5.32647384,4.69621862 5.45869517,4.91172364 L5.95078532,5.71377199 C6.06176778,5.89466019 6.0464698,6.12590207 5.91262525,6.29059355 L5.53091468,6.76027632 C5.39741035,6.92454917 5.17492748,6.98695103 4.97546678,6.91606801 L4.09630431,6.60363708 C3.85759694,6.51880684 3.59316607,6.62591024 3.48077535,6.85294703 L3.30321831,7.21162414 C3.19031199,7.43970248 3.26673666,7.71619919 3.48075001,7.85391577 L4.25217978,8.35032719 C4.43196326,8.46601702 4.51830062,8.68321206 4.46700667,8.89075764 L4.30764356,9.5355726 C4.25761918,9.73798124 4.08724525,9.88810076 3.8801493,9.91224543 L2.91289109,10.025015 C2.67977871,10.0521929 2.50071168,10.2443036 2.4899644,10.4787487 L2.47214978,10.8673634 C2.47162525,10.879349 2.47162525,10.8913506 2.47179648,10.9033447 L2.47742823,11.118476 C2.48093033,11.2522552 2.58224566,11.3631132 2.71517037,11.3786105 L3.82187379,11.5076376 C4.03737742,11.5327625 4.2120853,11.6940028 4.25438013,11.9068037 L4.39388275,12.608693 C4.43391341,12.810102 4.34672849,13.0155083 4.17404379,13.1266301 L3.36110302,13.6497537 C3.15288914,13.7837383 3.0740936,14.0499322 3.17582846,14.2756642 L3.32628426,14.6094995 C3.43322524,14.8467829 3.70431298,14.9623434 3.94955608,14.8751905 L4.78751164,14.5774034 C4.99341167,14.504232 5.22297694,14.573243 5.35440017,14.747819 L5.80445822,15.3456538 C5.9280079,15.5097711 5.93860567,15.7327565 5.83117765,15.9078514 L5.31936517,16.7420448 C5.18965912,16.9534502 5.23453334,17.2279863 5.42480093,17.3870905 L5.68571551,17.6052707 C5.88562429,17.772437 6.18040379,17.7580351 6.36306517,17.5721779 L6.99825479,16.9258749 C7.1507914,16.7706695 7.38619685,16.7319464 7.58041191,16.8301128 L8.2621877,17.1747179 C8.44807047,17.2686727 8.55624166,17.4680144 8.53369956,17.6750694 L8.42870666,18.639456 C8.40141091,18.8901745 8.56510844,19.1219734 8.81051691,19.1801068 L9.12400587,19.2543675 C9.37405145,19.3135993 9.62828314,19.1736534 9.71198775,18.9307033 L10.0141535,18.0536764 C10.0855851,17.8463484 10.2859906,17.7116548 10.5049416,17.7238152 L10.847273,17.7428281 C10.8657434,17.743854 10.8842566,17.743854 10.902727,17.7428281 L11.2450584,17.7238152 C11.4640094,17.7116548 11.6644149,17.8463484 11.7358465,18.0536764 L12.0380123,18.9307033 C12.1217169,19.1736534 12.3759486,19.3135993 12.6259941,19.2543675 L12.9394831,19.1801068 C13.1848916,19.1219734 13.3485891,18.8901745 13.3212933,18.639456 L13.2163004,17.6750694 C13.1937583,17.4680144 13.3019295,17.2686727 13.4878123,17.1747179 L14.1695881,16.8301128 C14.3638032,16.7319464 14.5992086,16.7706695 14.7517452,16.9258749 L15.3869348,17.5721779 C15.5695962,17.7580351 15.8643757,17.772437 16.0642845,17.6052707 L16.3251991,17.3870905 C16.5154667,17.2279863 16.5603409,16.9534502 16.4306348,16.7420448 L15.9188223,15.9078514 C15.8113943,15.7327565 15.8219921,15.5097711 15.9455418,15.3456538 L16.3955998,14.747819 C16.5270231,14.573243 16.7565883,14.504232 16.9624884,14.5774034 L17.8004439,14.8751905 C18.045687,14.9623434 18.3167748,14.8467829 18.4237157,14.6094995 L18.5741715,14.2756642 C18.6759064,14.0499322 18.5971109,13.7837383 18.388897,13.6497537 L17.5759562,13.1266301 C17.4032715,13.0155083 17.3160866,12.810102 17.3561172,12.608693 L17.4956199,11.9068037 C17.5379147,11.6940028 17.7126226,11.5327625 17.9281262,11.5076376 L19.0348296,11.3786105 C19.1677543,11.3631132 19.2690697,11.2522552 19.2725718,11.118476 L19.2782035,10.9033447 C19.2783748,10.8913506 19.2783748,10.879349 19.2778502,10.8673634 L19.2600356,10.4787487 C19.2492883,10.2443036 19.0702213,10.0521929 18.8371089,10.025015 L17.8698507,9.91224543 C17.6627548,9.88810076 17.4923808,9.73798124 17.4423564,9.5355726 L17.2829933,8.89075764 C17.2316994,8.68321206 17.3180367,8.46601702 17.4978202,8.35032719 L18.26925,7.85391577 C18.4832633,7.71619919 18.559688,7.43970248 18.4467817,7.21162414 L18.2692246,6.85294703 C18.1568339,6.62591024 17.8924031,6.51880684 17.6536957,6.60363708 L16.7745332,6.91606801 C16.5750725,6.98695103 16.3525896,6.92454917 16.2190853,6.76027632 L15.8373748,6.29059355 C15.7035302,6.12590207 15.6882322,5.89466019 15.7992147,5.71377199 L16.2913048,4.91172364 C16.4235262,4.69621862 16.3740638,4.41592304 16.1760672,4.25868992 L15.8619923,4.00927664 C15.6617161,3.85023321 15.3737083,3.86795716 15.1944445,4.05035742 L14.5402246,4.71602371 C14.3904128,4.86845665 14.1602777,4.90881249 13.9675389,4.81644826 L13.4626755,4.57450769 C13.2713615,4.48282626 13.1587313,4.2803949 13.1816922,4.06949372 L13.2846319,3.12396627 C13.3121184,2.87149514 13.1459731,2.63852318 12.8983184,2.58227066 L12.5102545,2.49412543 Z M5.61497759,9.80837153 C7.18503895,9.66784499 8.76717525,10.4392362 9.60718877,11.917254 C10.4110889,13.3317297 10.3234258,15.0205761 9.52132667,16.3122633 C7.1731254,15.7011424 5.4375,13.5370862 5.4375,10.9612247 C5.4375,10.5679465 5.47795859,10.1842678 5.55487824,9.81424941 L5.61497759,9.80837153 Z M12.1428112,11.917254 C12.9935221,10.420414 14.6053778,9.64831256 16.1949982,9.81418436 C16.2720414,10.1842678 16.3125,10.5679465 16.3125,10.9612247 C16.3125,13.5370862 14.5768746,15.7011424 12.2288317,16.3123742 C11.4265742,15.0205761 11.3389111,13.3317297 12.1428112,11.917254 Z M12.3058234,12.0099 C11.5817887,13.2838511 11.5988042,14.8311779 12.306627,16.0763712 L12.3166877,16.0937549 L12.3276887,16.0906033 C14.5294817,15.4481723 16.0907635,13.4058607 16.1244442,11.0393574 L16.125,10.9612247 C16.125,10.6685992 16.1018435,10.3791722 16.0561285,10.0948305 L16.0376252,9.98875486 L16.0276972,9.98804674 C14.5260993,9.88820442 13.0758848,10.6549641 12.3058234,12.0099 Z M5.78150591,9.98452224 L5.71200025,9.98856736 L5.69380767,10.0948988 C5.65466422,10.3386613 5.63207125,10.5861145 5.62641497,10.8360536 L5.625,10.9612247 C5.625,13.3608483 7.19636219,15.4411219 9.42245201,16.0904972 L9.43331275,16.0935674 L9.44351263,16.0762756 C10.1381089,14.8542038 10.1673267,13.3410226 9.48363767,12.0809509 L9.4441766,12.0099 C8.68452998,10.6732891 7.26253553,9.90808761 5.78150591,9.98452224 Z M10.8752625,10.0343079 C11.3393847,10.0343079 11.71563,10.4107448 11.71563,10.8751033 C11.71563,11.3394617 11.3393847,11.7158986 10.8752625,11.7158986 C10.4111404,11.7158986 10.0348951,11.3394617 10.0348951,10.8751033 C10.0348951,10.4107448 10.4111404,10.0343079 10.8752625,10.0343079 Z M10.8752625,10.2218079 C10.5147151,10.2218079 10.2223951,10.5142768 10.2223951,10.8751033 C10.2223951,11.2359297 10.5147151,11.5283986 10.8752625,11.5283986 C11.2358099,11.5283986 11.52813,11.2359297 11.52813,10.8751033 C11.52813,10.5142768 11.2358099,10.2218079 10.8752625,10.2218079 Z M10.875,5.4375 C12.3851043,5.4375 13.7514302,6.06285001 14.7367248,7.07253479 C14.1061838,8.60767576 12.6146139,9.68651903 10.875,9.68651903 C9.13538612,9.68651903 7.64381624,8.60767576 7.01325615,7.07267506 C7.99856976,6.06285001 9.3648957,5.4375 10.875,5.4375 Z M10.875,5.625 C9.51642528,5.625 8.24035516,6.15175344 7.27439449,7.07779209 L7.23562525,7.11531736 L7.24592362,7.13848615 C7.88192189,8.53967258 9.25423023,9.46915833 10.8000683,9.49831278 L10.875,9.49901903 C12.451339,9.49901903 13.8578308,8.56224648 14.5040572,7.13836279 L14.5141877,7.11512986 L14.4755923,7.07767268 C13.531083,6.17230395 12.2900989,5.64860725 10.9654445,5.62577894 L10.875,5.625 Z" id="Combined-Shape" fill-opacity="0.2" fill="#000000" fill-rule="nonzero"></path>
        </g>
        <g id="Guide/128"></g>
    </g>
</svg>