<?xml version="1.0" encoding="UTF-8"?>
<svg width="20px" height="20px" viewBox="0 0 20 20" version="1.1" xmlns="http://www.w3.org/2000/svg" xmlns:xlink="http://www.w3.org/1999/xlink">
    <title>dock-control-panel-dark</title>
    <g id="dock-control-panel-dark" stroke="none" fill="none" fill-rule="evenodd">
        <path d="M15.625,2.5 C17.3508898,2.5 18.75,3.89911016 18.75,5.625 C18.75,7.35088984 17.3508898,8.75 15.625,8.75 L4.375,8.75 C2.64911016,8.75 1.25,7.35088984 1.25,5.625 C1.25,3.89911016 2.64911016,2.5 4.375,2.5 L15.625,2.5 Z M15.625,3.75 C14.5894661,3.75 13.75,4.58946609 13.75,5.625 C13.75,6.66053391 14.5894661,7.5 15.625,7.5 C16.6605339,7.5 17.5,6.66053391 17.5,5.625 C17.5,4.58946609 16.6605339,3.75 15.625,3.75 Z M15.625,11.25 C17.3508898,11.25 18.75,12.6491102 18.75,14.375 C18.75,16.1008898 17.3508898,17.5 15.625,17.5 L4.375,17.5 C2.64911016,17.5 1.25,16.1008898 1.25,14.375 C1.25,12.6491102 2.64911016,11.25 4.375,11.25 L15.625,11.25 Z M13.9706603,12.5006175 L4.375,12.5 C3.33946609,12.5 2.5,13.3394661 2.5,14.375 C2.5,15.4105339 3.33946609,16.25 4.375,16.25 L13.9719434,16.2505149 C13.4525922,15.7924121 13.125,15.1219627 13.125,14.375 C13.125,13.7032874 13.3899127,13.0934484 13.8209602,12.6442611 L13.9706603,12.5006175 Z" id="形状" fill="#000000"></path>
    </g>
</svg>