<?xml version="1.0" encoding="UTF-8"?>
<svg width="20px" height="20px" viewBox="0 0 20 20" version="1.1" xmlns="http://www.w3.org/2000/svg" xmlns:xlink="http://www.w3.org/1999/xlink">
    <title>D/login_lock48/Normal备份</title>
    <g id="D/login_lock48/Normal备份" stroke="none" fill="none" fill-rule="evenodd">
        <path d="M13.5416667,7.08333333 L13.5416667,5.24437908 C13.5416667,3.33848039 11.8791667,1.66666667 9.98354167,1.66666667 L9.46604167,1.66666667 C7.60979167,1.66666667 6.04166667,3.30495098 6.04166667,5.24437908 L6.04166667,7.08333333 L5.09510417,7.08333333 C3.89385417,7.08333333 2.91666667,7.9152451 2.91666667,9.10864379 L2.91666667,15.3358007 C2.91666667,16.5291993 3.89385417,17.5 5.09510417,17.5 L14.4882292,17.5 C15.6894792,17.5 16.6666667,16.5291993 16.6666667,15.3358007 L16.6666667,9.10864379 C16.6666667,7.9152451 15.6894792,7.08333333 14.4882292,7.08333333 L13.5416667,7.08333333 Z M9.46604167,2.91666667 L9.98354167,2.91666667 C11.1916667,2.91666667 12.2916667,4.06602564 12.2916667,5.32820513 L12.2916667,7.08333333 L7.29166667,7.08333333 L7.29166667,5.32820513 C7.29166667,4.02083333 8.28729167,2.91666667 9.46604167,2.91666667 Z M14.4882292,16.25 L5.09510417,16.25 C4.58322917,16.25 4.16666667,15.8441186 4.16666667,15.3453686 L4.16666667,9.23796474 C4.16666667,8.73921474 4.58322917,8.33333333 5.09510417,8.33333333 L14.4882292,8.33333333 C15.0001042,8.33333333 15.4166667,8.73921474 15.4166667,9.23796474 L15.4166667,15.3453686 C15.4166667,15.8441186 15.0001042,16.25 14.4882292,16.25 Z" id="Fill-1" fill="#000000"></path>
    </g>
</svg>