<?xml version="1.0" encoding="UTF-8"?>
<svg width="20px" height="20px" viewBox="0 0 20 20" version="1.1" xmlns="http://www.w3.org/2000/svg" xmlns:xlink="http://www.w3.org/1999/xlink">
    <title>D/login_logout48/Normal备份</title>
    <g id="D/login_logout48/Normal备份" stroke="none" fill="none" fill-rule="evenodd">
        <path d="M9.4109375,1.66666667 C12.6065625,1.66666667 15.525,3.54947917 16.8453125,6.46260417 C16.9878125,6.77729167 16.84875,7.14729167 16.534375,7.28979167 C16.2196875,7.43322917 15.849375,7.29322917 15.7071875,6.97885417 C14.5884375,4.51135417 12.1171875,2.91666667 9.4109375,2.91666667 C5.6003125,2.91666667 2.5,6.01697917 2.5,9.82760417 C2.5,13.6385417 5.6003125,16.7388542 9.4109375,16.7388542 C12.1171875,16.7388542 14.5884375,15.1441667 15.7071875,12.6766667 C15.849375,12.3626042 16.219375,12.2226042 16.534375,12.3654167 C16.84875,12.5079167 16.9878125,12.8782292 16.8453125,13.1929167 C15.525,16.1060417 12.6065625,17.9888542 9.4109375,17.9888542 C4.9109375,17.9888542 1.25,14.3279167 1.25,9.82760417 C1.25,5.32760417 4.9109375,1.66666667 9.4109375,1.66666667 Z M17.9166667,9.16666667 C18.2619792,9.16666667 18.5416667,9.44635417 18.5416667,9.79166667 C18.5416667,10.1366667 18.2619792,10.4166667 17.9166667,10.4166667 L9.16666667,10.4166667 C8.82166667,10.4166667 8.54166667,10.1366667 8.54166667,9.79166667 C8.54166667,9.44635417 8.82166667,9.16666667 9.16666667,9.16666667 Z" id="Fill-2" fill="#000000"></path>
    </g>
</svg>