<?xml version="1.0" encoding="UTF-8"?>
<svg width="20px" height="20px" viewBox="0 0 20 20" version="1.1" xmlns="http://www.w3.org/2000/svg" xmlns:xlink="http://www.w3.org/1999/xlink">
    <title>图标/单色图标/动作/Option</title>
    <g id="首页" stroke="none" stroke-width="1" fill="none" fill-rule="evenodd">
        <g id="控制中心-首页-搜索" transform="translate(-1538, -138)" fill="#000000" fill-rule="nonzero">
            <g id="图标/单色图标/动作/Option" transform="translate(1538, 138)">
                <path d="M15,1.25 C17.0710678,1.25 18.75,2.92893219 18.75,5 L18.75,15 C18.75,17.0710678 17.0710678,18.75 15,18.75 L5,18.75 C2.92893219,18.75 1.25,17.0710678 1.25,15 L1.25,5 C1.25,2.92893219 2.92893219,1.25 5,1.25 L15,1.25 Z M15,2.5 L5,2.5 C3.61928813,2.5 2.5,3.61928813 2.5,5 L2.5,15 C2.5,16.3807119 3.61928813,17.5 5,17.5 L15,17.5 C16.3807119,17.5 17.5,16.3807119 17.5,15 L17.5,5 C17.5,3.61928813 16.3807119,2.5 15,2.5 Z M6.25,8.75 C6.94035594,8.75 7.5,9.30964406 7.5,10 C7.5,10.6903559 6.94035594,11.25 6.25,11.25 C5.55964406,11.25 5,10.6903559 5,10 C5,9.30964406 5.55964406,8.75 6.25,8.75 Z M10,8.75 C10.6903559,8.75 11.25,9.30964406 11.25,10 C11.25,10.6903559 10.6903559,11.25 10,11.25 C9.30964406,11.25 8.75,10.6903559 8.75,10 C8.75,9.30964406 9.30964406,8.75 10,8.75 Z M13.75,8.75 C14.4403559,8.75 15,9.30964406 15,10 C15,10.6903559 14.4403559,11.25 13.75,11.25 C13.0596441,11.25 12.5,10.6903559 12.5,10 C12.5,9.30964406 13.0596441,8.75 13.75,8.75 Z" id="形状结合"></path>
            </g>
        </g>
    </g>
</svg>