<?xml version="1.0" encoding="UTF-8"?>
<svg width="20px" height="20px" viewBox="0 0 20 20" version="1.1" xmlns="http://www.w3.org/2000/svg" xmlns:xlink="http://www.w3.org/1999/xlink">
    <title>D/login_shutdown48/Normal备份</title>
    <g id="D/login_shutdown48/Normal备份" stroke="none" fill="none" fill-rule="evenodd">
        <path d="M12.7322748,3.3509375 C12.8743148,3.036875 13.243931,2.896875 13.5586042,3.0396875 C16.4590297,4.35625 18.3333333,7.264375 18.3333333,10.449375 C18.3333333,14.9340625 14.6883685,18.5828125 10.2083333,18.5828125 C5.72829818,18.5828125 2.08333333,14.9340625 2.08333333,10.449375 C2.08333333,7.264375 3.95763694,4.35625 6.85806246,3.0396875 C7.17304786,2.896875 7.54266403,3.036875 7.68470403,3.3509375 C7.8270562,3.6653125 7.68782578,4.035625 7.37408909,4.178125 C4.91851411,5.2921875 3.3320366,7.75375 3.3320366,10.449375 C3.3320366,14.2446875 6.41664585,17.3328125 10.2083333,17.3328125 C13.9997086,17.3328125 17.0846301,14.2446875 17.0846301,10.449375 C17.0846301,7.75375 15.4981526,5.2921875 13.0428898,4.178125 C12.7288409,4.035625 12.5899226,3.6653125 12.7322748,3.3509375 Z M10.2089817,1.25 C10.5536238,1.25 10.8333333,1.53 10.8333333,1.875 L10.8333333,10.4166667 C10.8333333,10.7616667 10.5536238,11.0416667 10.2089817,11.0416667 C9.8643396,11.0416667 9.58463006,10.7616667 9.58463006,10.4166667 L9.58463006,1.875 C9.58463006,1.53 9.8643396,1.25 10.2089817,1.25 Z" id="Fill-4" fill="#000000"></path>
    </g>
</svg>