<?xml version="1.0" encoding="UTF-8"?>
<svg width="20px" height="20px" viewBox="0 0 20 20" version="1.1" xmlns="http://www.w3.org/2000/svg" xmlns:xlink="http://www.w3.org/1999/xlink">
    <title>D/login_reboot48/Normal备份</title>
    <g id="D/login_reboot48/Normal备份" stroke="none" fill="none" fill-rule="evenodd">
        <path d="M17.7297917,2.92604167 C17.3907292,2.85447917 17.0601042,3.07072917 16.9888542,3.40822917 L16.5838542,5.32135417 C15.0935417,3.06854167 12.5510417,1.66666667 9.80010417,1.66666667 C5.31541667,1.66666667 1.66666667,5.31541667 1.66666667,9.79979167 C1.66666667,14.2844792 5.31541667,17.9332292 9.80010417,17.9332292 C12.9847917,17.9332292 15.8932292,16.0569792 17.2094792,13.1535417 C17.3519792,12.8388542 17.2126042,12.4685417 16.8985417,12.3260417 C16.5832292,12.1822917 16.2132292,12.3229167 16.0710417,12.6369792 C14.9569792,15.0951042 12.4954167,16.6832292 9.80010417,16.6832292 C6.00447917,16.6832292 2.91666667,13.5954167 2.91666667,9.79979167 C2.91666667,6.00447917 6.00447917,2.91666667 9.80010417,2.91666667 C12.1341667,2.91666667 14.2910417,4.10916667 15.5513542,6.02447917 L13.6022917,5.61197917 C13.2632292,5.54010417 12.9326042,5.75635417 12.8613542,6.09416667 C12.7897917,6.43197917 13.0057292,6.76354167 13.3435417,6.83510417 L16.7501042,7.55604167 C16.7938542,7.56510417 16.8372917,7.56947917 16.8801042,7.56947917 C17.1691667,7.56947917 17.4288542,7.36791667 17.4910417,7.07385417 L18.2119792,3.66697917 C18.2832292,3.32916667 18.0676042,2.99791667 17.7297917,2.92604167" id="Fill-6" fill="#000000"></path>
    </g>
</svg>