<?xml version="1.0" encoding="UTF-8"?>
<svg width="20px" height="21px" viewBox="0 0 20 21" version="1.1" xmlns="http://www.w3.org/2000/svg" xmlns:xlink="http://www.w3.org/1999/xlink">
    <title>shutdown-symbolic-dark</title>
    <g id="shutdown-symbolic-dark" stroke="none" fill="none" transform="translate(0, 0.75)" fill-rule="nonzero">
        <path d="M14.0262891,2.22941438 C16.9044999,3.72351633 18.7501299,6.69798672 18.7501299,10 C18.7501299,14.8324916 14.8326214,18.75 10.0001299,18.75 C5.16763829,18.75 1.25012985,14.8324916 1.25012985,10 C1.25012985,6.70207119 3.09118173,3.73067496 5.96384395,2.2346796 C6.26999513,2.07524534 6.64742671,2.19418292 6.80686096,2.5003341 C6.96629521,2.80648529 6.84735764,3.18391686 6.54120645,3.34335111 C4.07796691,4.62613157 2.50012985,7.17270786 2.50012985,10 C2.50012985,14.1421356 5.85799423,17.5 10.0001299,17.5 C14.1422655,17.5 17.5001299,14.1421356 17.5001299,10 C17.5001299,7.16921016 15.9183647,4.61999193 13.4503774,3.33884022 C13.1440179,3.17980659 13.0245867,2.80253092 13.1836204,2.49617144 C13.342654,2.18981195 13.7199297,2.07038075 14.0262891,2.22941438 Z M10.0000002,1.25 C10.8750002,1.25 10.8750002,2.12499976 10.8750002,2.12499976 L10.8729261,9.16751875 L10.8601227,9.26881653 C10.8171431,9.51714299 10.6500002,10 10.0000002,10 C9.18333357,10 9.12888913,9.23777799 9.1252595,9.13614838 L9.12707431,2.08248125 L9.13987779,1.98118347 C9.18285738,1.73285701 9.35000023,1.25 10.0000002,1.25 Z" id="形状" fill="#000000"></path>
    </g>
</svg>