<?xml version="1.0" encoding="UTF-8"?>
<svg width="20px" height="20px" viewBox="0 0 20 20" version="1.1" xmlns="http://www.w3.org/2000/svg" xmlns:xlink="http://www.w3.org/1999/xlink">
    <title>D/login_hibernate48/Normal备份</title>
    <g id="D/login_hibernate48/Normal备份" stroke="none" fill="none" fill-rule="nonzero">
        <g id="图标与LOGO/单色图标/关机/Suspend大" fill="#000000">
            <path d="M7.27217814,1.69131477 C7.61853546,1.56078012 7.97145765,2.01303265 7.71214555,2.27405876 C5.625,4.375 5.26953929,6.27362596 5.41666667,8.33333333 C5.63598891,11.4037317 7.30977003,14.4633142 11.25,14.7916667 C13.75,15 15.8333333,14.375 17.7377858,12.4371139 C18.0059263,12.1642661 18.444542,12.5536627 18.3041268,12.912633 C17.0403907,16.0874222 13.9231748,18.334483 10.2864229,18.334483 C5.52166953,18.334483 1.66493396,14.4837108 1.66493396,9.74716765 C1.66493396,6.0502398 4.00050562,2.90342227 7.27217814,1.69131477 Z M16.25,2.91666667 C16.8068155,2.91666667 17.0856698,3.58988037 16.6919417,3.9836084 L13.175,7.5 L16.25,7.5 C16.5748734,7.5 16.8418536,7.74787003 16.8721389,8.06480833 L16.875,8.125 C16.875,8.47017797 16.595178,8.75 16.25,8.75 L11.6666667,8.75 C11.1098511,8.75 10.8309969,8.0767863 11.2247249,7.68305826 L14.74125,4.16666667 L11.6666667,4.16666667 C11.3417933,4.16666667 11.0748131,3.91879663 11.0445277,3.60185834 L11.0416667,3.54166667 C11.0416667,3.1964887 11.3214887,2.91666667 11.6666667,2.91666667 L16.25,2.91666667 Z" id="形状结合"></path>
        </g>
    </g>
</svg>