<?xml version="1.0" encoding="UTF-8"?>
<svg width="42px" height="42px" viewBox="0 0 42 42" version="1.1" xmlns="http://www.w3.org/2000/svg" xmlns:xlink="http://www.w3.org/1999/xlink">
    <title>nav/systeminfo</title>
    <defs>
        <linearGradient x1="50%" y1="-6.47675357%" x2="50%" y2="98.3804729%" id="linearGradient-1">
            <stop stop-color="#4F4F4F" offset="0%"></stop>
            <stop stop-color="#393939" offset="100%"></stop>
        </linearGradient>
        <path d="M23.875,0 C26.1531746,-4.18493883e-16 28,1.84682541 28,4.125 L28,11.35 L27.8651793,11.3565475 C26.9658167,11.4295539 26.2587065,12.1825729 26.2587065,13.1007463 C26.2587065,14.0645411 27.0378311,14.8463616 28.0006003,14.8507279 L28,22.875 C28,25.1531746 26.1531746,27 23.875,27 L4.125,27 C1.84682541,27 2.78995922e-16,25.1531746 0,22.875 L0.000543245912,14.8507276 C0.97520478,14.8507463 1.75870647,14.0672446 1.75870647,13.1007463 C1.75870647,12.134248 0.97520478,11.3507463 0.00870646766,11.3507463 L0,11.35 L0,4.125 C-2.78995922e-16,1.84682541 1.84682541,4.18493883e-16 4.125,0 L23.875,0 Z M2.5,24 C2.22385763,24 2,24.2238576 2,24.5 C2,24.7761424 2.22385763,25 2.5,25 C2.77614237,25 3,24.7761424 3,24.5 C3,24.2238576 2.77614237,24 2.5,24 Z M25.5,24 C25.2238576,24 25,24.2238576 25,24.5 C25,24.7761424 25.2238576,25 25.5,25 C25.7761424,25 26,24.7761424 26,24.5 C26,24.2238576 25.7761424,24 25.5,24 Z M2.5,2 C2.22385763,2 2,2.22385763 2,2.5 C2,2.77614237 2.22385763,3 2.5,3 C2.77614237,3 3,2.77614237 3,2.5 C3,2.22385763 2.77614237,2 2.5,2 Z M25.5,2 C25.2238576,2 25,2.22385763 25,2.5 C25,2.77614237 25.2238576,3 25.5,3 C25.7761424,3 26,2.77614237 26,2.5 C26,2.22385763 25.7761424,2 25.5,2 Z" id="path-2"></path>
        <filter x="-25.0%" y="-18.5%" width="150.0%" height="151.9%" filterUnits="objectBoundingBox" id="filter-3">
            <feOffset dx="0" dy="2" in="SourceAlpha" result="shadowOffsetOuter1"></feOffset>
            <feGaussianBlur stdDeviation="2" in="shadowOffsetOuter1" result="shadowBlurOuter1"></feGaussianBlur>
            <feColorMatrix values="0 0 0 0 0   0 0 0 0 0   0 0 0 0 0  0 0 0 0.418378497 0" type="matrix" in="shadowBlurOuter1"></feColorMatrix>
        </filter>
        <linearGradient x1="25.1955489%" y1="-1.10818286%" x2="90.2645875%" y2="103.4512%" id="linearGradient-4">
            <stop stop-color="#A8E8FF" offset="0%"></stop>
            <stop stop-color="#CDBEFF" offset="100%"></stop>
        </linearGradient>
        <path d="M6,3 L22,3 C23.6568542,3 25,4.34314575 25,6 L25,21 C25,22.6568542 23.6568542,24 22,24 L6,24 C4.34314575,24 3,22.6568542 3,21 L3,6 C3,4.34314575 4.34314575,3 6,3 Z" id="path-5"></path>
        <filter x="-9.1%" y="-4.8%" width="118.2%" height="119.0%" filterUnits="objectBoundingBox" id="filter-6">
            <feOffset dx="0" dy="1" in="SourceAlpha" result="shadowOffsetOuter1"></feOffset>
            <feGaussianBlur stdDeviation="0.5" in="shadowOffsetOuter1" result="shadowBlurOuter1"></feGaussianBlur>
            <feColorMatrix values="0 0 0 0 0   0 0 0 0 0   0 0 0 0 0  0 0 0 0.25 0" type="matrix" in="shadowBlurOuter1"></feColorMatrix>
        </filter>
        <filter x="-6.8%" y="-2.4%" width="113.6%" height="114.3%" filterUnits="objectBoundingBox" id="filter-7">
            <feOffset dx="0" dy="-1" in="SourceAlpha" result="shadowOffsetInner1"></feOffset>
            <feComposite in="shadowOffsetInner1" in2="SourceAlpha" operator="arithmetic" k2="-1" k3="1" result="shadowInnerInner1"></feComposite>
            <feColorMatrix values="0 0 0 0 0   0 0 0 0 0   0 0 0 0 0  0 0 0 0.15 0" type="matrix" in="shadowInnerInner1" result="shadowMatrixInner1"></feColorMatrix>
            <feOffset dx="0" dy="1" in="SourceAlpha" result="shadowOffsetInner2"></feOffset>
            <feComposite in="shadowOffsetInner2" in2="SourceAlpha" operator="arithmetic" k2="-1" k3="1" result="shadowInnerInner2"></feComposite>
            <feColorMatrix values="0 0 0 0 1   0 0 0 0 1   0 0 0 0 1  0 0 0 0.25 0" type="matrix" in="shadowInnerInner2" result="shadowMatrixInner2"></feColorMatrix>
            <feMerge>
                <feMergeNode in="shadowMatrixInner1"></feMergeNode>
                <feMergeNode in="shadowMatrixInner2"></feMergeNode>
            </feMerge>
        </filter>
        <linearGradient x1="42.8823737%" y1="38.6612862%" x2="54.3020741%" y2="62.109223%" id="linearGradient-8">
            <stop stop-color="#000000" stop-opacity="0.25" offset="0%"></stop>
            <stop stop-color="#000000" stop-opacity="0.2" offset="100%"></stop>
        </linearGradient>
    </defs>
    <g id="nav/systeminfo" stroke="none" stroke-width="1" fill="none" fill-rule="evenodd">
        <g id="编组" transform="translate(7.000000, 8.000000)">
            <g id="形状结合">
                <use fill="black" fill-opacity="1" filter="url(#filter-3)" xlink:href="#path-2"></use>
                <use fill="url(#linearGradient-1)" fill-rule="evenodd" xlink:href="#path-2"></use>
            </g>
            <g id="矩形">
                <use fill="black" fill-opacity="1" filter="url(#filter-6)" xlink:href="#path-5"></use>
                <use fill="url(#linearGradient-4)" fill-rule="evenodd" xlink:href="#path-5"></use>
                <use fill="black" fill-opacity="1" filter="url(#filter-7)" xlink:href="#path-5"></use>
            </g>
            <path d="M6,19 L20,19 L20,20 L6,20 Z M6,17 L22.5,17 L22.5,18 L6,18 Z M6,15 L14.5,15 L14.5,16 L6,16 Z M6,13 L9,13 L9,14 L6,14 Z" id="形状结合" fill="url(#linearGradient-8)"></path>
            <g id="uos_logo" transform="translate(9.000000, 7.000000)" fill="#000000" fill-opacity="0.4">
                <path d="M3.06666667,0 C3.85827481,0 4.5,0.641725192 4.5,1.43333333 L4.5,3.56666667 C4.5,4.35827481 3.85827481,5 3.06666667,5 L1.43333333,5 C0.641725192,5 0,4.35827481 0,3.56666667 L0,1.43333333 C0,0.641725192 0.641725192,0 1.43333333,0 L3.06666667,0 Z M3.06666667,1 L1.43333333,1 C1.19400994,1 1,1.19400994 1,1.43333333 L1,3.56666667 C1,3.80599006 1.19400994,4 1.43333333,4 L3.06666667,4 C3.30599006,4 3.5,3.80599006 3.5,3.56666667 L3.5,1.43333333 C3.5,1.19400994 3.30599006,1 3.06666667,1 Z M9.5,0 L6.7,0 C6.0372583,0 5.5,0.5372583 5.5,1.2 L5.5,1.8 C5.5,2.4627417 6.0372583,3 6.7,3 L8.8,3 C8.91045695,3 9,3.08954305 9,3.2 L9,3.8 C9,3.91045695 8.91045695,4 8.8,4 L6,4 C5.72385763,4 5.5,4.22385763 5.5,4.5 C5.5,4.77614237 5.72385763,5 6,5 L8.8,5 C9.4627417,5 10,4.4627417 10,3.8 L10,3.2 C10,2.5372583 9.4627417,2 8.8,2 L6.7,2 C6.58954305,2 6.5,1.91045695 6.5,1.8 L6.5,1.2 C6.5,1.08954305 6.58954305,1 6.7,1 L9.5,1 C9.77614237,1 10,0.776142375 10,0.5 C10,0.223857625 9.77614237,0 9.5,0 Z" id="形状结合"></path>
            </g>
        </g>
    </g>
</svg>