<?xml version="1.0" encoding="UTF-8"?>
<svg width="16px" height="16px" viewBox="0 0 16 16" version="1.1" xmlns="http://www.w3.org/2000/svg" xmlns:xlink="http://www.w3.org/1999/xlink">
    <title>checkbox/checked/normal</title>
    <g id="桌面版" stroke="none" stroke-width="1" fill="none" fill-rule="evenodd">
        <g id="控制中心-安全隐私" transform="translate(-1730.000000, -913.000000)" fill="#414D68" fill-rule="nonzero">
            <g id="radio-unchecked" transform="translate(1730.500000, 913.500000)">
                <path d="M7.49569412,-0.5 L7.23861815,-0.495798207 C2.92426212,-0.34991277 -0.504305884,3.18652115 -0.504305884,7.5 C-0.504305884,11.9129547 3.07995711,15.5 7.49569412,15.5 L7.75277009,15.4957982 C12.0671261,15.3499128 15.4956941,11.8134789 15.4956941,7.5 L15.4914923,7.24292403 C15.3456069,2.92856801 11.809173,-0.5 7.49569412,-0.5 Z M7.49569412,0.5 C11.2811458,0.5 14.3647928,3.51232554 14.4916351,7.25982163 L14.4956941,7.5 C14.4956941,11.2854517 11.4833686,14.3690987 7.73587248,14.495941 L7.49569412,14.5 C3.62970087,14.5 0.495694116,11.3581267 0.495694116,7.5 C0.495694116,3.71454828 3.50801966,0.630901317 7.25551575,0.504059018 L7.49569412,0.5 Z" id="rect5147-9-1-7-7"></path>
            </g>
        </g>
    </g>
</svg>