<?xml version="1.0" encoding="UTF-8"?>
<svg width="20px" height="20px" viewBox="0 0 20 20" version="1.1" xmlns="http://www.w3.org/2000/svg" xmlns:xlink="http://www.w3.org/1999/xlink">
    <title>D/login_switchuser48/Normal备份</title>
    <g id="D/login_switchuser48/Normal备份" stroke="none" fill="none" fill-rule="nonzero">
        <path d="M16.2586592,6.38643297 C16.2586592,3.88112047 14.3933467,1.84330797 12.1005342,1.84330797 C9.80803422,1.84330797 7.92047024,3.88112047 7.92047024,6.38643297 C7.92047024,8.07174547 8.79135417,9.54237047 10.0419792,10.3267455 C6.97947917,11.1717455 4.78865922,13.9317455 4.78865922,17.2986205 C4.78865922,17.6436205 5.06834672,17.9166667 5.41365922,17.9166667 L18.6449092,17.9166667 C18.9899092,17.9166667 19.2699092,17.6436205 19.2699092,17.2986205 C19.2699092,13.9686205 17.1295967,11.2317455 14.1199092,10.354558 C15.3939717,9.57737047 16.2586592,8.09112047 16.2586592,6.38643297 Z M15.0086592,6.38643297 C15.0086592,8.20237047 13.7039717,9.67955797 12.1005342,9.67955797 C10.4970967,9.67955797 9.19240922,8.20237047 9.19240922,6.38643297 C9.19240922,4.57049547 10.4970967,3.09330797 12.1005342,3.09330797 C13.7039717,3.09330797 15.0086592,4.57049547 15.0086592,6.38643297 Z M12.0292842,11.3079955 C15.1770967,11.3079955 17.6855342,13.6119792 17.9889717,16.6666667 L6.06959672,16.6666667 C6.37272172,13.6119792 8.88147172,11.3079955 12.0292842,11.3079955 Z M7.08479167,1.66666667 C7.35135417,1.66666667 7.61729167,1.69822917 7.87416667,1.76010417 C8.20979167,1.84104167 8.41666667,2.17854167 8.33572917,2.51385417 C8.25479167,2.85010417 7.91791667,3.05666667 7.58166667,2.97541667 C7.42010417,2.93666667 7.25291667,2.91666667 7.08479167,2.91666667 C5.66885417,2.91666667 4.51666667,4.31354167 4.51666667,6.03072917 C4.51666667,7.30135417 5.14572917,8.43416667 6.11916667,8.91635417 C6.41697917,9.06354167 6.41510417,9.40046573 6.41510417,9.71791667 C6.41510417,10.0353676 6.22666667,10.3066667 5.91666667,10.3682292 C3.69666667,10.8110417 1.97729167,12.749375 1.70447917,15 L2.64260417,15 C2.98791667,15 3.26760417,15.2732292 3.26760417,15.6185417 C3.26760417,15.9635417 2.98791667,16.25 2.64260417,16.25 L1.04166667,16.25 C0.696666667,16.25 0.416666667,15.9635417 0.416666667,15.6185417 C0.416666667,12.8247917 2.16260417,10.3672917 4.68666667,9.42697917 C3.80322917,8.61166667 3.26666667,7.37229167 3.26666667,6.03072917 C3.26666667,3.62447917 4.97916667,1.66666667 7.08479167,1.66666667 Z" id="Fill-8" fill="#000000"></path>
    </g>
</svg>